<svg width="25" height="24" viewBox="0 0 25 24" fill="none" xmlns="http://www.w3.org/2000/svg">
<mask id="mask0_614_12540" style="mask-type:alpha" maskUnits="userSpaceOnUse" x="0" y="0" width="25" height="24">
<rect x="0.5" width="24" height="24" fill="#D9D9D9"/>
</mask>
<g mask="url(#mask0_614_12540)">
<path d="M3.5 21V7H7.5V3H17.5V11H21.5V21H13.5V17H11.5V21H3.5ZM5.5 19H7.5V17H5.5V19ZM5.5 15H7.5V13H5.5V15ZM5.5 11H7.5V9H5.5V11ZM9.5 15H11.5V13H9.5V15ZM9.5 11H11.5V9H9.5V11ZM9.5 7H11.5V5H9.5V7ZM13.5 15H15.5V13H13.5V15ZM13.5 11H15.5V9H13.5V11ZM13.5 7H15.5V5H13.5V7ZM17.5 19H19.5V17H17.5V19ZM17.5 15H19.5V13H17.5V15Z" fill="white"/>
</g>
</svg>
