<svg width="24" height="24" viewBox="0 0 24 24" fill="none" xmlns="http://www.w3.org/2000/svg">
<mask id="mask0_614_10331" style="mask-type:alpha" maskUnits="userSpaceOnUse" x="0" y="0" width="24" height="24">
<rect width="24" height="24" fill="#D9D9D9"/>
</mask>
<g mask="url(#mask0_614_10331)">
<path d="M6.11538 21.5C5.38076 21.5 4.76121 21.2512 4.25673 20.7536C3.75224 20.256 3.5 19.6394 3.5 18.9038V5.11538C3.5 4.38888 3.75064 3.77136 4.25192 3.26283C4.75321 2.75428 5.37436 2.5 6.11538 2.5H16.8077V17.8077H6.11538C5.79934 17.8077 5.53443 17.9147 5.32065 18.1288C5.10687 18.3429 4.99997 18.6029 4.99997 18.9086C4.99997 19.2144 5.10687 19.4727 5.32065 19.6836C5.53443 19.8945 5.79934 20 6.11538 20H19V4.5H20.5V21.5H6.11538ZM7.1923 16.3077H8.69225V3.99998H7.1923V16.3077Z" fill="white"/>
</g>
</svg>
