<svg width="25" height="24" viewBox="0 0 25 24" fill="none" xmlns="http://www.w3.org/2000/svg">
<mask id="mask0_614_12588" style="mask-type:alpha" maskUnits="userSpaceOnUse" x="0" y="0" width="25" height="24">
<rect x="0.5" width="24" height="24" fill="#D9D9D9"/>
</mask>
<g mask="url(#mask0_614_12588)">
<path d="M6.5 22C5.66667 22 4.95833 21.7083 4.375 21.125C3.79167 20.5417 3.5 19.8333 3.5 19V5C3.5 4.16667 3.79167 3.45833 4.375 2.875C4.95833 2.29167 5.66667 2 6.5 2H15.5C16.05 2 16.5208 2.19583 16.9125 2.5875C17.3042 2.97917 17.5 3.45 17.5 4V16C17.5 16.55 17.3042 17.0208 16.9125 17.4125C16.5208 17.8042 16.05 18 15.5 18H6.5C6.21667 18 5.97917 18.0958 5.7875 18.2875C5.59583 18.4792 5.5 18.7167 5.5 19C5.5 19.2833 5.59583 19.5208 5.7875 19.7125C5.97917 19.9042 6.21667 20 6.5 20H19.5V5C19.5 4.71667 19.5958 4.47917 19.7875 4.2875C19.9792 4.09583 20.2167 4 20.5 4C20.7833 4 21.0208 4.09583 21.2125 4.2875C21.4042 4.47917 21.5 4.71667 21.5 5V20C21.5 20.55 21.3042 21.0208 20.9125 21.4125C20.5208 21.8042 20.05 22 19.5 22H6.5ZM9.5 16H15.5V4H9.5V16ZM7.5 16V4H6.5C6.21667 4 5.97917 4.09583 5.7875 4.2875C5.59583 4.47917 5.5 4.71667 5.5 5V16.175C5.66667 16.125 5.82917 16.0833 5.9875 16.05C6.14583 16.0167 6.31667 16 6.5 16H7.5Z" fill="white"/>
</g>
</svg>
