<svg width="19" height="18" viewBox="0 0 19 18" fill="none" xmlns="http://www.w3.org/2000/svg">
<mask id="mask0_614_8852" style="mask-type:alpha" maskUnits="userSpaceOnUse" x="0" y="0" width="19" height="18">
<rect x="0.5" width="18" height="18" fill="#D9D9D9"/>
</mask>
<g mask="url(#mask0_614_8852)">
<path d="M4.48078 16.1256C4.10193 16.1256 3.78125 15.9943 3.51875 15.7318C3.25625 15.4693 3.125 15.1486 3.125 14.7698V4.73137C3.125 4.35252 3.25625 4.03184 3.51875 3.76934C3.78125 3.50684 4.10193 3.37559 4.48078 3.37559H5.51924V1.78906H6.67306V3.37559H12.3557V1.78906H13.4807V3.37559H14.5192C14.898 3.37559 15.2187 3.50684 15.4812 3.76934C15.7437 4.03184 15.875 4.35252 15.875 4.73137V14.7698C15.875 15.1486 15.7437 15.4693 15.4812 15.7318C15.2187 15.9943 14.898 16.1256 14.5192 16.1256H4.48078ZM4.48078 15.0006H14.5192C14.5769 15.0006 14.6298 14.9765 14.6779 14.9285C14.7259 14.8804 14.75 14.8275 14.75 14.7698V7.73137H4.24998V14.7698C4.24998 14.8275 4.27402 14.8804 4.32209 14.9285C4.37018 14.9765 4.42308 15.0006 4.48078 15.0006ZM4.24998 6.60639H14.75V4.73137C14.75 4.67367 14.7259 4.62078 14.6779 4.57269C14.6298 4.52461 14.5769 4.50058 14.5192 4.50058H4.48078C4.42308 4.50058 4.37018 4.52461 4.32209 4.57269C4.27402 4.62078 4.24998 4.67367 4.24998 4.73137V6.60639ZM9.49998 10.5583C9.31633 10.5583 9.15984 10.4936 9.03052 10.3643C8.90119 10.235 8.83653 10.0785 8.83653 9.89482C8.83653 9.71117 8.90119 9.55468 9.03052 9.42536C9.15984 9.29603 9.31633 9.23137 9.49998 9.23137C9.68363 9.23137 9.84012 9.29603 9.96944 9.42536C10.0988 9.55468 10.1634 9.71117 10.1634 9.89482C10.1634 10.0785 10.0988 10.235 9.96944 10.3643C9.84012 10.4936 9.68363 10.5583 9.49998 10.5583ZM6.49998 10.5583C6.31633 10.5583 6.15984 10.4936 6.03052 10.3643C5.90119 10.235 5.83653 10.0785 5.83653 9.89482C5.83653 9.71117 5.90119 9.55468 6.03052 9.42536C6.15984 9.29603 6.31633 9.23137 6.49998 9.23137C6.68363 9.23137 6.84012 9.29603 6.96944 9.42536C7.09877 9.55468 7.16343 9.71117 7.16343 9.89482C7.16343 10.0785 7.09877 10.235 6.96944 10.3643C6.84012 10.4936 6.68363 10.5583 6.49998 10.5583ZM12.5 10.5583C12.3163 10.5583 12.1598 10.4936 12.0305 10.3643C11.9012 10.235 11.8365 10.0785 11.8365 9.89482C11.8365 9.71117 11.9012 9.55468 12.0305 9.42536C12.1598 9.29603 12.3163 9.23137 12.5 9.23137C12.6836 9.23137 12.8401 9.29603 12.9694 9.42536C13.0988 9.55468 13.1634 9.71117 13.1634 9.89482C13.1634 10.0785 13.0988 10.235 12.9694 10.3643C12.8401 10.4936 12.6836 10.5583 12.5 10.5583ZM9.49998 13.5006C9.31633 13.5006 9.15984 13.4359 9.03052 13.3066C8.90119 13.1773 8.83653 13.0208 8.83653 12.8371C8.83653 12.6535 8.90119 12.497 9.03052 12.3677C9.15984 12.2383 9.31633 12.1737 9.49998 12.1737C9.68363 12.1737 9.84012 12.2383 9.96944 12.3677C10.0988 12.497 10.1634 12.6535 10.1634 12.8371C10.1634 13.0208 10.0988 13.1773 9.96944 13.3066C9.84012 13.4359 9.68363 13.5006 9.49998 13.5006ZM6.49998 13.5006C6.31633 13.5006 6.15984 13.4359 6.03052 13.3066C5.90119 13.1773 5.83653 13.0208 5.83653 12.8371C5.83653 12.6535 5.90119 12.497 6.03052 12.3677C6.15984 12.2383 6.31633 12.1737 6.49998 12.1737C6.68363 12.1737 6.84012 12.2383 6.96944 12.3677C7.09877 12.497 7.16343 12.6535 7.16343 12.8371C7.16343 13.0208 7.09877 13.1773 6.96944 13.3066C6.84012 13.4359 6.68363 13.5006 6.49998 13.5006ZM12.5 13.5006C12.3163 13.5006 12.1598 13.4359 12.0305 13.3066C11.9012 13.1773 11.8365 13.0208 11.8365 12.8371C11.8365 12.6535 11.9012 12.497 12.0305 12.3677C12.1598 12.2383 12.3163 12.1737 12.5 12.1737C12.6836 12.1737 12.8401 12.2383 12.9694 12.3677C13.0988 12.497 13.1634 12.6535 13.1634 12.8371C13.1634 13.0208 13.0988 13.1773 12.9694 13.3066C12.8401 13.4359 12.6836 13.5006 12.5 13.5006Z" fill="#3F434C"/>
</g>
</svg>
