<svg width="19" height="18" viewBox="0 0 19 18" fill="none" xmlns="http://www.w3.org/2000/svg">
<mask id="mask0_614_11499" style="mask-type:alpha" maskUnits="userSpaceOnUse" x="0" y="0" width="19" height="18">
<rect x="0.5" width="18" height="18" fill="#D9D9D9"/>
</mask>
<g mask="url(#mask0_614_11499)">
<path d="M6.79998 12.4904L9.49998 9.79035L12.2 12.4904L12.9904 11.7L10.2904 8.99998L12.9904 6.29998L12.2 5.50961L9.49998 8.20961L6.79998 5.50961L6.00961 6.29998L8.70961 8.99998L6.00961 11.7L6.79998 12.4904ZM9.50124 16.125C8.51579 16.125 7.58951 15.938 6.72241 15.564C5.8553 15.19 5.10104 14.6824 4.45963 14.0413C3.8182 13.4001 3.31041 12.6462 2.93624 11.7795C2.56208 10.9128 2.375 9.98669 2.375 9.00124C2.375 8.01579 2.562 7.08951 2.936 6.22241C3.31 5.3553 3.81756 4.60104 4.45869 3.95963C5.09983 3.3182 5.85376 2.81041 6.72048 2.43624C7.58719 2.06208 8.51328 1.875 9.49873 1.875C10.4842 1.875 11.4105 2.062 12.2776 2.436C13.1447 2.81 13.8989 3.31756 14.5403 3.95869C15.1818 4.59983 15.6896 5.35376 16.0637 6.22048C16.4379 7.08719 16.625 8.01328 16.625 8.99873C16.625 9.98418 16.438 10.9104 16.064 11.7776C15.69 12.6447 15.1824 13.3989 14.5413 14.0403C13.9001 14.6818 13.1462 15.1896 12.2795 15.5637C11.4128 15.9379 10.4867 16.125 9.50124 16.125Z" fill="#457FD4"/>
</g>
</svg>
