<svg width="18" height="18" viewBox="0 0 18 18" fill="none" xmlns="http://www.w3.org/2000/svg">
<mask id="mask0_614_3768" style="mask-type:alpha" maskUnits="userSpaceOnUse" x="0" y="0" width="18" height="18">
<rect width="18" height="18" fill="#D9D9D9"/>
</mask>
<g mask="url(#mask0_614_3768)">
<path d="M4.78991 1.48897L5.58461 0.691406L11.85 6.95677C12.1134 7.22024 12.2452 7.54283 12.2452 7.92455C12.2452 8.30628 12.1134 8.62887 11.85 8.89234L8.60481 12.1519C8.34616 12.4106 8.02597 12.5399 7.64424 12.5399C7.26252 12.5399 6.94233 12.4106 6.68368 12.1519L3.43851 8.89234C3.17504 8.62887 3.04331 8.30628 3.04331 7.92455C3.04331 7.54283 3.17504 7.22024 3.43851 6.95677L6.84954 3.54861L4.78991 1.48897ZM7.65146 4.35052L4.21444 7.77309C4.1904 7.79714 4.17478 7.82239 4.16756 7.84883C4.16035 7.87528 4.15674 7.90292 4.15674 7.93177H11.1317C11.1317 7.90292 11.1281 7.87528 11.1209 7.84883C11.1137 7.82239 11.0981 7.79714 11.074 7.77309L7.65146 4.35052ZM14.0913 13.0087C13.7269 13.0087 13.4171 12.881 13.1618 12.6257C12.9065 12.3705 12.7789 12.0606 12.7789 11.6962C12.7789 11.4529 12.8474 11.2017 12.9844 10.9426C13.1214 10.6835 13.2692 10.4395 13.4279 10.2106C13.5308 10.0702 13.6375 9.92842 13.7481 9.78516C13.8586 9.64188 13.9731 9.50006 14.0913 9.35968C14.2096 9.50006 14.324 9.64188 14.4346 9.78516C14.5452 9.92842 14.6519 10.0702 14.7548 10.2106C14.9134 10.4395 15.0613 10.6835 15.1983 10.9426C15.3353 11.2017 15.4038 11.4529 15.4038 11.6962C15.4038 12.0606 15.2762 12.3705 15.0209 12.6257C14.7656 12.881 14.4558 13.0087 14.0913 13.0087ZM1.5 17.999V15.7491H16.5V17.999H1.5Z" fill="white"/>
</g>
</svg>
