<svg width="24" height="24" viewBox="0 0 24 24" fill="none" xmlns="http://www.w3.org/2000/svg">
<mask id="mask0_614_5425" style="mask-type:alpha" maskUnits="userSpaceOnUse" x="0" y="0" width="24" height="24">
<rect width="24" height="24" fill="#D9D9D9"/>
</mask>
<g mask="url(#mask0_614_5425)">
<path d="M7.67352 12L5.00427 7.83457C4.6735 7.32817 4.65351 6.81248 4.94429 6.2875C5.23509 5.7625 5.68392 5.5 6.29077 5.5H14.8081C15.1554 5.5 15.481 5.57821 15.7849 5.73463C16.0888 5.89104 16.3389 6.10899 16.535 6.38848L19.7523 10.9558C19.9767 11.2735 20.0888 11.6216 20.0888 11.9999C20.0888 12.3781 19.9767 12.7263 19.7523 13.0442L16.4966 17.6307C16.309 17.9034 16.066 18.1165 15.7676 18.2699C15.4691 18.4233 15.1494 18.5 14.8084 18.5H6.29077C5.68392 18.5 5.23509 18.2375 4.94429 17.7125C4.65351 17.1875 4.6735 16.6718 5.00427 16.1654L7.67352 12Z" fill="white"/>
</g>
</svg>
