<svg width="24" height="24" viewBox="0 0 24 24" fill="none" xmlns="http://www.w3.org/2000/svg">
<mask id="mask0_614_12508" style="mask-type:alpha" maskUnits="userSpaceOnUse" x="0" y="0" width="24" height="24">
<rect width="24" height="24" fill="#D9D9D9"/>
</mask>
<g mask="url(#mask0_614_12508)">
<path d="M7.6732 12L5.00395 7.83457C4.67318 7.32817 4.65299 6.81248 4.94337 6.2875C5.23376 5.7625 5.68278 5.5 6.29045 5.5H14.8078C15.1539 5.5 15.4792 5.57821 15.7837 5.73463C16.0882 5.89104 16.3385 6.10899 16.5347 6.38848L19.752 10.9558C19.9763 11.2737 20.0885 11.6218 20.0885 12C20.0885 12.3782 19.9763 12.7263 19.752 13.0442L16.4962 17.6307C16.3065 17.9038 16.0626 18.1169 15.7645 18.2701C15.4664 18.4233 15.1475 18.5 14.8078 18.5H6.29045C5.68278 18.5 5.23376 18.2375 4.94337 17.7125C4.65299 17.1875 4.67318 16.6718 5.00395 16.1654L7.6732 12ZM9.477 12L6.227 17H14.8078C14.9039 17 14.9937 16.9775 15.077 16.9327C15.1604 16.8878 15.2309 16.8269 15.2886 16.75L18.5405 12.1827C18.5789 12.1314 18.5982 12.0705 18.5982 12C18.5982 11.9295 18.5789 11.8686 18.5405 11.8173L15.2886 7.25C15.2309 7.17307 15.1636 7.11217 15.0866 7.0673C15.0097 7.02242 14.9168 6.99998 14.8078 6.99998H6.227L9.477 12Z" fill="white"/>
</g>
</svg>
