<svg width="18" height="19" viewBox="0 0 18 19" fill="none" xmlns="http://www.w3.org/2000/svg">
<mask id="mask0_614_13064" style="mask-type:alpha" maskUnits="userSpaceOnUse" x="0" y="0" width="18" height="19">
<rect y="0.345459" width="18" height="18" fill="#D9D9D9"/>
</mask>
<g mask="url(#mask0_614_13064)">
<path d="M8.9625 13.8455C9.225 13.8455 9.44688 13.7548 9.62813 13.5736C9.80938 13.3923 9.9 13.1705 9.9 12.908C9.9 12.6455 9.80938 12.4236 9.62813 12.2423C9.44688 12.0611 9.225 11.9705 8.9625 11.9705C8.7 11.9705 8.47813 12.0611 8.29688 12.2423C8.11562 12.4236 8.025 12.6455 8.025 12.908C8.025 13.1705 8.11562 13.3923 8.29688 13.5736C8.47813 13.7548 8.7 13.8455 8.9625 13.8455ZM8.2875 10.958H9.675C9.675 10.5455 9.72188 10.2205 9.81563 9.98296C9.90938 9.74546 10.175 9.42046 10.6125 9.00796C10.9375 8.68296 11.1938 8.37358 11.3813 8.07983C11.5688 7.78608 11.6625 7.43296 11.6625 7.02046C11.6625 6.32046 11.4062 5.78296 10.8938 5.40796C10.3813 5.03296 9.775 4.84546 9.075 4.84546C8.3625 4.84546 7.78437 5.03296 7.34062 5.40796C6.89687 5.78296 6.5875 6.23296 6.4125 6.75796L7.65 7.24546C7.7125 7.02046 7.85312 6.77671 8.07187 6.51421C8.29063 6.25171 8.625 6.12046 9.075 6.12046C9.475 6.12046 9.775 6.22983 9.975 6.44858C10.175 6.66733 10.275 6.90796 10.275 7.17046C10.275 7.42046 10.2 7.65483 10.05 7.87358C9.9 8.09233 9.7125 8.29546 9.4875 8.48296C8.9375 8.97046 8.6 9.33921 8.475 9.58921C8.35 9.83921 8.2875 10.2955 8.2875 10.958ZM9 16.8455C7.9625 16.8455 6.9875 16.6486 6.075 16.2548C5.1625 15.8611 4.36875 15.3267 3.69375 14.6517C3.01875 13.9767 2.48438 13.183 2.09063 12.2705C1.69687 11.358 1.5 10.383 1.5 9.34546C1.5 8.30796 1.69687 7.33296 2.09063 6.42046C2.48438 5.50796 3.01875 4.71421 3.69375 4.03921C4.36875 3.36421 5.1625 2.82983 6.075 2.43608C6.9875 2.04233 7.9625 1.84546 9 1.84546C10.0375 1.84546 11.0125 2.04233 11.925 2.43608C12.8375 2.82983 13.6313 3.36421 14.3063 4.03921C14.9813 4.71421 15.5156 5.50796 15.9094 6.42046C16.3031 7.33296 16.5 8.30796 16.5 9.34546C16.5 10.383 16.3031 11.358 15.9094 12.2705C15.5156 13.183 14.9813 13.9767 14.3063 14.6517C13.6313 15.3267 12.8375 15.8611 11.925 16.2548C11.0125 16.6486 10.0375 16.8455 9 16.8455ZM9 15.3455C10.675 15.3455 12.0938 14.7642 13.2563 13.6017C14.4187 12.4392 15 11.0205 15 9.34546C15 7.67046 14.4187 6.25171 13.2563 5.08921C12.0938 3.92671 10.675 3.34546 9 3.34546C7.325 3.34546 5.90625 3.92671 4.74375 5.08921C3.58125 6.25171 3 7.67046 3 9.34546C3 11.0205 3.58125 12.4392 4.74375 13.6017C5.90625 14.7642 7.325 15.3455 9 15.3455Z" fill="#3F434C"/>
</g>
</svg>
