<svg width="24" height="24" viewBox="0 0 24 24" fill="none" xmlns="http://www.w3.org/2000/svg">
<mask id="mask0_614_12522" style="mask-type:alpha" maskUnits="userSpaceOnUse" x="0" y="0" width="24" height="24">
<rect width="24" height="24" fill="#D9D9D9"/>
</mask>
<g mask="url(#mask0_614_12522)">
<path d="M6.99995 13.6153C6.55252 13.6153 6.17143 13.458 5.8567 13.1432C5.54197 12.8285 5.3846 12.4474 5.3846 12C5.3846 11.5525 5.54197 11.1715 5.8567 10.8567C6.17143 10.542 6.55252 10.3846 6.99995 10.3846C7.44738 10.3846 7.82847 10.542 8.1432 10.8567C8.45793 11.1715 8.6153 11.5525 8.6153 12C8.6153 12.4474 8.45793 12.8285 8.1432 13.1432C7.82847 13.458 7.44738 13.6153 6.99995 13.6153ZM6.99995 17.5C5.47432 17.5 4.17625 16.9647 3.10575 15.8942C2.03525 14.8237 1.5 13.5256 1.5 12C1.5 10.4743 2.03525 9.17628 3.10575 8.10578C4.17625 7.03526 5.47432 6.5 6.99995 6.5C8.07173 6.5 9.04096 6.77661 9.90763 7.32982C10.7743 7.88302 11.4358 8.60642 11.8922 9.5H20.8942L23.3941 12L19.548 15.8269L17.6923 14.4326L15.7884 15.8461L13.8365 14.5H11.8922C11.4358 15.3871 10.7743 16.1089 9.90763 16.6653C9.04096 17.2217 8.07173 17.5 6.99995 17.5ZM6.99995 16C7.95893 16 8.78938 15.7102 9.4913 15.1308C10.1932 14.5513 10.6512 13.841 10.8653 13H14.3077L15.748 13.9961L17.7019 12.5673L19.4 13.8654L21.2654 12L20.2654 11H10.8653C10.6512 10.159 10.1932 9.4487 9.4913 8.8692C8.78938 8.28972 7.95893 7.99998 6.99995 7.99998C5.89995 7.99998 4.95828 8.39164 4.17495 9.17498C3.39162 9.95831 2.99995 10.9 2.99995 12C2.99995 13.1 3.39162 14.0416 4.17495 14.825C4.95828 15.6083 5.89995 16 6.99995 16Z" fill="white"/>
</g>
</svg>
