<svg width="154" height="84" viewBox="0 0 154 84" fill="none" xmlns="http://www.w3.org/2000/svg">
<g clip-path="url(#clip0_616_2033)">
<path d="M42.5391 29.5633C40.2335 29.5633 38.1052 30.2082 36.1543 31.4981C34.1712 32.8202 32.7362 34.5454 31.8494 36.6736C31.2529 38.0763 30.9546 39.5355 30.9546 41.051C30.9546 41.8088 31.0272 42.5747 31.1723 43.3486C31.6076 45.6542 32.6395 47.6374 34.2679 49.298C35.9447 50.9748 37.9601 52.047 40.3141 52.5146C41.088 52.6758 41.8619 52.7565 42.6358 52.7565C44.1675 52.7565 45.6589 52.4421 47.11 51.8133C50.4636 50.3783 52.6805 47.7986 53.7608 44.0741H42.5391C41.7329 44.0741 41.0557 43.7839 40.5076 43.2035C39.9271 42.6392 39.6369 41.962 39.6369 41.172C39.6369 40.3497 39.9271 39.6645 40.5076 39.1163C41.0557 38.552 41.7329 38.2698 42.5391 38.2698H56.8323C57.7674 38.2698 58.5171 38.552 59.0814 39.1163C59.678 39.7128 59.9763 40.3497 59.9763 41.0269C59.9763 41.1397 59.9682 41.2526 59.9521 41.3655C59.4039 44.8319 58.9283 47.0489 58.5252 48.0163C57.187 51.1764 55.0506 53.7238 52.1162 55.6586C49.1657 57.5934 45.9733 58.5608 42.5391 58.5608C39.0726 58.5608 35.856 57.5773 32.8894 55.6103C29.9388 53.6432 27.8025 51.0635 26.4804 47.8711C25.6098 45.7429 25.1744 43.534 25.1744 41.2445C25.1744 40.648 25.2067 40.0514 25.2712 39.4549C25.5292 36.5366 26.4724 33.8762 28.1008 31.4739C29.697 29.0715 31.7849 27.1851 34.3646 25.8147C36.9282 24.4603 39.653 23.7751 42.5391 23.759C43.3452 23.759 44.0305 24.0492 44.5948 24.6296C45.1591 25.1939 45.4412 25.8711 45.4412 26.6611C45.4412 27.4673 45.1591 28.1525 44.5948 28.7168C44.0305 29.2811 43.3452 29.5633 42.5391 29.5633ZM44.498 25.597C44.2078 25.0488 43.7725 24.6699 43.1921 24.4603C42.918 24.3636 42.6519 24.3152 42.394 24.3152C42.1682 24.3152 41.9586 24.3555 41.7652 24.4361C41.6039 24.5006 41.4346 24.6538 41.2573 24.8957C41.1767 24.9924 41.1364 25.073 41.1364 25.1375C41.1364 25.2181 41.217 25.2584 41.3782 25.2584H41.4266C41.7329 25.1778 42.007 25.1375 42.2489 25.1375C43.0228 25.1375 43.5951 25.5245 43.966 26.2984C43.9982 26.3306 44.0305 26.3467 44.0627 26.3467C44.1433 26.3467 44.232 26.2903 44.3287 26.1774C44.4739 26.0323 44.5464 25.9114 44.5464 25.8147V25.7905C44.5464 25.7421 44.5303 25.6776 44.498 25.597ZM59.1298 40.6157C58.8396 40.0675 58.4043 39.6886 57.8238 39.479C57.5497 39.3823 57.2837 39.3339 57.0257 39.3339C56.8 39.3339 56.5904 39.3742 56.3969 39.4549C56.2357 39.5193 56.0664 39.6725 55.889 39.9144C55.8084 40.0111 55.7681 40.0917 55.7681 40.1562C55.7681 40.2368 55.8487 40.2771 56.01 40.2771H56.0583C56.3647 40.1965 56.6388 40.1562 56.8806 40.1562C57.6545 40.1562 58.2269 40.5432 58.5977 41.3171C58.63 41.3493 58.6622 41.3655 58.6945 41.3655C58.7751 41.3655 58.8638 41.309 58.9605 41.1962C59.1056 41.051 59.1782 40.9301 59.1782 40.8334V40.8092C59.1782 40.7608 59.162 40.6963 59.1298 40.6157ZM66.7722 58.5608C65.837 58.5608 65.0792 58.2706 64.4988 57.6901C63.9184 57.0775 63.6282 56.3116 63.6282 55.3926V26.7095C63.8216 25.4035 64.4101 24.4926 65.3936 23.9766C65.7 23.8315 66.1434 23.759 66.7238 23.759H95.5278C96.3179 23.759 96.995 24.0492 97.5593 24.6296C98.1236 25.1939 98.4058 25.8711 98.4058 26.6611C98.4058 27.4673 98.1236 28.1525 97.5593 28.7168C96.995 29.2811 96.3179 29.5633 95.5278 29.5633H69.4325V37.7619H88.1515C88.9576 37.7619 89.6429 38.0441 90.2072 38.6084C90.7715 39.1727 91.0536 39.8579 91.0536 40.6641C91.0536 41.4703 90.7715 42.1474 90.2072 42.6956C89.6429 43.276 88.9576 43.5663 88.1515 43.5663H69.4325V52.7565H95.5278C96.3179 52.7565 96.995 53.0306 97.5593 53.5787C98.1236 54.1592 98.4058 54.8525 98.4058 55.6586C98.4058 56.4648 98.1236 57.15 97.5593 57.7143C96.995 58.2786 96.3179 58.5608 95.5278 58.5608H66.7722ZM97.4384 25.7179C97.1482 25.1697 96.7129 24.7909 96.1324 24.5813C95.8583 24.4845 95.5923 24.4361 95.3343 24.4361H94.1735C94.0445 24.5813 93.98 24.7183 93.98 24.8473C93.98 24.8795 93.9881 24.9198 94.0042 24.9682C94.0687 25.1294 94.2218 25.2181 94.4637 25.2342C94.7055 25.2504 94.9474 25.2584 95.1892 25.2584C95.9631 25.2584 96.5355 25.6454 96.9063 26.4193C96.9386 26.4515 96.9708 26.4677 97.0031 26.4677C97.0837 26.4677 97.1724 26.4112 97.2691 26.2984C97.4142 26.1533 97.4868 26.0323 97.4868 25.9356V25.9114C97.4868 25.863 97.4707 25.7985 97.4384 25.7179ZM97.4384 54.8122C97.1482 54.264 96.7129 53.8851 96.1324 53.6755C95.8583 53.5787 95.5923 53.5304 95.3343 53.5304H94.1735C94.0445 53.6755 93.98 53.8125 93.98 53.9415C93.98 53.9738 93.9881 54.0141 94.0042 54.0624C94.0687 54.2237 94.2218 54.3123 94.4637 54.3285C94.7055 54.3446 94.9474 54.3526 95.1892 54.3526C95.9631 54.3526 96.5355 54.7396 96.9063 55.5135C96.9386 55.5458 96.9708 55.5619 97.0031 55.5619C97.0837 55.5619 97.1724 55.5055 97.2691 55.3926C97.4142 55.2475 97.4868 55.1266 97.4868 55.0298V55.0056C97.4868 54.9573 97.4707 54.8928 97.4384 54.8122ZM90.0137 39.7693C89.7235 39.2211 89.2882 38.8422 88.7077 38.6326C88.4336 38.5358 88.1676 38.4875 87.9096 38.4875H86.7488C86.6198 38.6326 86.5553 38.7696 86.5553 38.8986C86.5553 38.9309 86.5633 38.9712 86.5795 39.0195C86.644 39.1808 86.7971 39.2694 87.039 39.2856C87.2808 39.3017 87.5227 39.3097 87.7645 39.3097C88.5384 39.3097 89.1108 39.6967 89.4816 40.4706C89.5139 40.5029 89.5461 40.519 89.5784 40.519C89.659 40.519 89.7477 40.4626 89.8444 40.3497C89.9895 40.2046 90.0621 40.0837 90.0621 39.9869V39.9627C90.0621 39.9144 90.0459 39.8499 90.0137 39.7693ZM102.034 27.0239C102.034 25.992 102.324 25.1939 102.904 24.6296C103.468 24.0492 104.242 23.759 105.226 23.759H133.933C134.739 23.759 135.425 24.0492 135.989 24.6296C136.553 25.1939 136.835 25.8711 136.835 26.6611C136.835 27.4673 136.553 28.1525 135.989 28.7168C135.425 29.2811 134.739 29.5633 133.933 29.5633H107.838V37.7619H126.581C127.403 37.7619 128.089 38.0441 128.637 38.6084C129.201 39.1727 129.483 39.8579 129.483 40.6641C129.483 41.4703 129.201 42.1474 128.637 42.6956C128.089 43.276 127.403 43.5663 126.581 43.5663H107.838V55.6586C107.838 56.4648 107.556 57.15 106.991 57.7143C106.427 58.2786 105.742 58.5608 104.936 58.5608C104.146 58.5608 103.468 58.2786 102.904 57.7143C102.324 57.15 102.034 56.4648 102.034 55.6586V27.0239ZM135.844 25.7179C135.554 25.1697 135.118 24.7909 134.538 24.5813C134.264 24.4845 133.998 24.4361 133.74 24.4361H132.579C132.45 24.5813 132.385 24.7183 132.385 24.8473C132.385 24.8795 132.393 24.9198 132.41 24.9682C132.474 25.1294 132.627 25.2181 132.869 25.2342C133.111 25.2504 133.353 25.2584 133.595 25.2584C134.368 25.2584 134.941 25.6454 135.312 26.4193C135.344 26.4515 135.376 26.4677 135.408 26.4677C135.489 26.4677 135.578 26.4112 135.674 26.2984C135.82 26.1533 135.892 26.0323 135.892 25.9356V25.9114C135.892 25.863 135.876 25.7985 135.844 25.7179ZM128.419 39.7693C128.129 39.2211 127.694 38.8422 127.113 38.6326C126.839 38.5358 126.573 38.4875 126.315 38.4875H125.154C125.025 38.6326 124.961 38.7696 124.961 38.8986C124.961 38.9309 124.969 38.9712 124.985 39.0195C125.049 39.1808 125.202 39.2694 125.444 39.2856C125.686 39.3017 125.928 39.3097 126.17 39.3097C126.944 39.3097 127.516 39.6967 127.887 40.4706C127.919 40.5029 127.951 40.519 127.984 40.519C128.064 40.519 128.153 40.4626 128.25 40.3497C128.395 40.2046 128.467 40.0837 128.467 39.9869V39.9627C128.467 39.9144 128.451 39.8499 128.419 39.7693Z" fill="#3F434C"/>
<path d="M5.1692 41.0631C5.79658 55.5259 12.0126 66.2492 24.3457 73.3238C25.1217 73.7696 25.8894 74.1824 26.0627 75.1399C26.2196 76.0067 25.9554 76.7579 25.2372 77.2945C24.486 77.8476 23.6688 77.8559 22.8598 77.4348C19.4587 75.6765 16.363 73.4807 13.6059 70.8308C7.02658 64.4909 2.93208 56.8467 1.47919 47.8075C-1.89713 26.8892 11.2944 7.15132 31.4533 2.02493C43.7286 -1.09548 55.137 1.1499 65.5219 8.4226C66.463 9.083 66.7849 9.94979 66.529 10.9074C66.3144 11.7081 65.5797 12.4015 64.6964 12.4015C64.1268 12.4015 63.4746 12.2199 63.0124 11.898C58.5711 8.7528 53.7089 6.57347 48.3431 5.6489C37.463 3.78326 27.5817 6.16072 18.9221 13.0289C11.9301 18.5763 7.62095 25.8408 5.9204 34.5911C5.48289 36.8282 5.39208 39.1231 5.17745 41.0713L5.1692 41.0631Z" fill="#3F434C"/>
<path d="M42.3332 72.3C27.3833 72.2752 14.3486 61.2465 11.9381 46.5195C9.19741 29.8112 20.0693 14.2092 36.7033 11.0392C38.379 10.7173 40.1043 10.6182 41.8131 10.5109C43.4807 10.4036 44.5373 11.2704 44.5456 12.6159C44.5538 13.9202 43.5632 14.7457 41.9287 14.7788C29.5709 15.0264 19.12 23.5374 16.3876 35.5815C13.0195 50.4158 23.0659 65.2337 38.1149 67.6194C43.9842 68.5522 49.5646 67.6441 54.8396 64.9117C55.1698 64.7384 55.5165 64.5485 55.8715 64.4742C56.9034 64.2513 57.9022 64.7961 58.2737 65.7455C58.6782 66.7608 58.2985 67.8588 57.2666 68.4201C53.9315 70.261 50.3654 71.4497 46.5763 71.9368C45.1647 72.1184 43.7448 72.1844 42.3249 72.3H42.3332Z" fill="#3F434C"/>
</g>
<defs>
<clipPath id="clip0_616_2033">
<rect width="152.099" height="82.6909" fill="white" transform="translate(0.950317 0.654541)"/>
</clipPath>
</defs>
</svg>
