<svg width="24" height="24" viewBox="0 0 24 24" fill="none" xmlns="http://www.w3.org/2000/svg">
<mask id="mask0_614_11343" style="mask-type:alpha" maskUnits="userSpaceOnUse" x="0" y="0" width="24" height="24">
<rect width="24" height="24" fill="#D9D9D9"/>
</mask>
<g mask="url(#mask0_614_11343)">
<path d="M6.49976 14.9746V13.9746H3.99976V11.9746H8.99976V9.97461H4.99976C4.71642 9.97461 4.47892 9.87878 4.28726 9.68711C4.09559 9.49544 3.99976 9.25794 3.99976 8.97461V4.97461C3.99976 4.69128 4.09559 4.45378 4.28726 4.26211C4.47892 4.07044 4.71642 3.97461 4.99976 3.97461H6.49976V2.97461H8.49976V3.97461H10.9998V5.97461H5.99976V7.97461H9.99976C10.2831 7.97461 10.5206 8.07044 10.7123 8.26211C10.9039 8.45378 10.9998 8.69128 10.9998 8.97461V12.9746C10.9998 13.2579 10.9039 13.4954 10.7123 13.6871C10.5206 13.8788 10.2831 13.9746 9.99976 13.9746H8.49976V14.9746H6.49976Z" fill="#3F434C"/>
<path d="M11.4998 17.4079L14.0664 19.9746L16.9998 17.0413L19.9331 19.9746L22.4998 17.4079L19.5664 14.4746L22.4998 11.5413L19.9331 8.97461L16.9998 11.9079L14.0664 8.97461L11.4998 11.5413L14.4331 14.4746L11.4998 17.4079Z" fill="#3F434C"/>
</g>
</svg>
