<svg width="18" height="18" viewBox="0 0 18 18" fill="none" xmlns="http://www.w3.org/2000/svg">
<mask id="mask0_614_13108" style="mask-type:alpha" maskUnits="userSpaceOnUse" x="0" y="0" width="18" height="18">
<rect width="18" height="18" fill="#D9D9D9"/>
</mask>
<g mask="url(#mask0_614_13108)">
<path d="M9 15.75C8.5875 15.75 8.23438 15.6031 7.94063 15.3094C7.64688 15.0156 7.5 14.6625 7.5 14.25C7.5 13.8375 7.64688 13.4844 7.94063 13.1906C8.23438 12.8969 8.5875 12.75 9 12.75C9.4125 12.75 9.76562 12.8969 10.0594 13.1906C10.3531 13.4844 10.5 13.8375 10.5 14.25C10.5 14.6625 10.3531 15.0156 10.0594 15.3094C9.76562 15.6031 9.4125 15.75 9 15.75ZM7.5 11.25V2.25H10.5V11.25H7.5Z" fill="#B84A4A"/>
</g>
</svg>
