<svg width="25" height="24" viewBox="0 0 25 24" fill="none" xmlns="http://www.w3.org/2000/svg">
<mask id="mask0_614_13435" style="mask-type:alpha" maskUnits="userSpaceOnUse" x="0" y="0" width="25" height="24">
<rect x="0.5" width="24" height="24" fill="#D9D9D9"/>
</mask>
<g mask="url(#mask0_614_13435)">
<path d="M10.1923 21.5L9.81156 18.4538C9.54361 18.3641 9.26892 18.2384 8.98751 18.0769C8.70609 17.9153 8.45448 17.7422 8.23268 17.5576L5.41153 18.7499L3.10388 14.75L5.54426 12.9058C5.52117 12.757 5.50482 12.6077 5.49521 12.4577C5.48559 12.3077 5.48078 12.1583 5.48078 12.0096C5.48078 11.8673 5.48559 11.7227 5.49521 11.5759C5.50482 11.4291 5.52117 11.2686 5.54426 11.0942L3.10388 9.24998L5.41153 5.26925L8.22306 6.45195C8.46409 6.26092 8.72147 6.08623 8.99518 5.9279C9.26892 5.76955 9.53783 5.6423 9.80193 5.54615L10.1923 2.5H14.8076L15.1884 5.55578C15.4884 5.66474 15.7599 5.79198 16.0029 5.9375C16.2458 6.08302 16.491 6.2545 16.7384 6.45195L19.5884 5.26925L21.8961 9.24998L19.4173 11.123C19.4532 11.2846 19.4727 11.4355 19.4759 11.5759C19.4791 11.7163 19.4807 11.8577 19.4807 12C19.4807 12.1359 19.4775 12.274 19.4711 12.4144C19.4647 12.5548 19.4416 12.7154 19.4019 12.8962L21.8615 14.75L19.5538 18.7499L16.7384 17.548C16.491 17.7455 16.2384 17.9201 15.9807 18.0721C15.723 18.224 15.4589 18.348 15.1884 18.4442L14.8076 21.5H10.1923ZM12.5115 15C13.3436 15 14.0516 14.708 14.6355 14.124C15.2195 13.54 15.5115 12.832 15.5115 12C15.5115 11.1679 15.2195 10.4599 14.6355 9.87595C14.0516 9.29198 13.3436 9 12.5115 9C11.6692 9 10.9587 9.29198 10.3798 9.87595C9.80097 10.4599 9.51156 11.1679 9.51156 12C9.51156 12.832 9.80097 13.54 10.3798 14.124C10.9587 14.708 11.6692 15 12.5115 15Z" fill="white"/>
</g>
</svg>
