<svg width="25" height="24" viewBox="0 0 25 24" fill="none" xmlns="http://www.w3.org/2000/svg">
<mask id="mask0_614_12612" style="mask-type:alpha" maskUnits="userSpaceOnUse" x="0" y="0" width="25" height="24">
<rect x="0.5" width="24" height="24" fill="#D9D9D9"/>
</mask>
<g mask="url(#mask0_614_12612)">
<path d="M10.1925 21.5L9.81168 18.4538C9.54373 18.3641 9.26905 18.2384 8.98763 18.0769C8.70621 17.9153 8.4546 17.7422 8.2328 17.5576L5.41165 18.7499L3.104 14.75L5.54438 12.9058C5.5213 12.757 5.50495 12.6077 5.49533 12.4577C5.48571 12.3077 5.4809 12.1583 5.4809 12.0096C5.4809 11.8673 5.48571 11.7227 5.49533 11.5759C5.50495 11.4291 5.5213 11.2686 5.54438 11.0942L3.104 9.24998L5.41165 5.26925L8.22318 6.45195C8.46421 6.26092 8.72159 6.08623 8.9953 5.9279C9.26904 5.76955 9.53795 5.6423 9.80205 5.54615L10.1925 2.5H14.8078L15.1885 5.55578C15.4885 5.66474 15.76 5.79198 16.003 5.9375C16.2459 6.08302 16.4911 6.2545 16.7386 6.45195L19.5886 5.26925L21.8962 9.24998L19.4174 11.123C19.4533 11.2846 19.4728 11.4355 19.476 11.5759C19.4792 11.7163 19.4808 11.8577 19.4808 12C19.4808 12.1359 19.4776 12.274 19.4712 12.4144C19.4648 12.5548 19.4417 12.7154 19.402 12.8962L21.8616 14.75L19.5539 18.7499L16.7386 17.548C16.4911 17.7455 16.2386 17.9201 15.9809 18.0721C15.7232 18.224 15.459 18.348 15.1885 18.4442L14.8078 21.5H10.1925ZM12.5116 15C13.3437 15 14.0517 14.708 14.6357 14.124C15.2196 13.54 15.5116 12.832 15.5116 12C15.5116 11.1679 15.2196 10.4599 14.6357 9.87595C14.0517 9.29198 13.3437 9 12.5116 9C11.6693 9 10.9588 9.29198 10.3799 9.87595C9.8011 10.4599 9.51168 11.1679 9.51168 12C9.51168 12.832 9.8011 13.54 10.3799 14.124C10.9588 14.708 11.6693 15 12.5116 15Z" fill="white"/>
</g>
</svg>
